<svg xmlns="http://www.w3.org/2000/svg" viewBox="0 0 48 60" x="0px" y="0px"><title>helmet, safety, construction</title><path d="M44,29.06a3.27,3.27,0,0,0-2-1.42V27.5c0-6.78-3.73-15.4-14.13-17.81A3,3,0,0,0,25,7.5H23a3,3,0,0,0-2.87,2.19C9.73,12.1,6,20.72,6,27.5v.14a3.27,3.27,0,0,0-2,1.42A3.86,3.86,0,0,0,4.12,33C5.34,35.25,12.31,41.5,24,41.5s18.66-6.25,19.9-8.56A3.84,3.84,0,0,0,44,29.06ZM22,10.5a1,1,0,0,1,1-1h2a1,1,0,0,1,1,1v8a1,1,0,0,1-1,1H23a1,1,0,0,1-1-1ZM8,27.5a16.76,16.76,0,0,1,4-10.88l2.14,4.32a1,1,0,0,0,.9.56,1,1,0,0,0,.44-.1,1,1,0,0,0,.46-1.34l-2.44-4.92A16.2,16.2,0,0,1,20,11.78V18.5a3,3,0,0,0,3,3h2a3,3,0,0,0,3-3V11.78a16.27,16.27,0,0,1,6.54,3.36L32.1,20.06a1,1,0,0,0,.45,1.34,1,1,0,0,0,.45.1,1,1,0,0,0,.9-.56L36,16.62A16.76,16.76,0,0,1,40,27.5V28c-2.21,1.56-10.86,3.47-16,3.47S10.21,29.59,8,28ZM42.12,32c-1,1.91-7.48,7.47-18.12,7.47S6.91,33.94,5.9,32.06a2.07,2.07,0,0,1-.19-2,1.41,1.41,0,0,1,1-.55C9.65,31.7,19.21,33.5,24,33.5s14.35-1.8,17.28-3.94a1.41,1.41,0,0,1,1,.55A2,2,0,0,1,42.12,32Z"/><text x="0" y="63" fill="#000000" font-size="5px" font-weight="bold" font-family="'Helvetica Neue', Helvetica, Arial-Unicode, Arial, Sans-serif">Created by Deemak Daksina</text><text x="0" y="68" fill="#000000" font-size="5px" font-weight="bold" font-family="'Helvetica Neue', Helvetica, Arial-Unicode, Arial, Sans-serif">from the Noun Project</text></svg>