<svg xmlns="http://www.w3.org/2000/svg" viewBox="0 0 48 60" x="0px" y="0px"><title>crane, tower, construction</title><path d="M41.26,10l-22-6A.89.89,0,0,0,19,4H13a1,1,0,0,0-.38.08,1,1,0,0,0-.33.21l-6,6a1,1,0,0,0-.21.33A1,1,0,0,0,6,11v4a1,1,0,0,0,1,1h5V38H9a1,1,0,0,0-1,1v4a1,1,0,0,0,1,1H23a1,1,0,0,0,1-1V39a1,1,0,0,0-1-1H20V16H35v4H33a1,1,0,0,0-1,1v4a1,1,0,0,0,1,1h2v3a1,1,0,0,0,1,1,2,2,0,1,1-2,2,1,1,0,0,0-2,0,4,4,0,1,0,5-3.87V26h2a1,1,0,0,0,1-1V21a1,1,0,0,0-1-1H37V16h4a1,1,0,0,0,1-1V11A1,1,0,0,0,41.26,10ZM38,24H34V22h4ZM18,11v3.28l-4,1.33V11.72l4-1.33Zm-6-1H9.41L12,7.41Zm6,16.28-4,1.33V23.72l4-1.33Zm-4,3.44,4-1.33v3.89l-4,1.33Zm4-9.44-4,1.33V17.72l4-1.33Zm2-14L33.53,10H20Zm-2,2L14,9.61V6h4ZM8,14V12h4v2ZM22,42H10V40H22Zm-8-4V35.72l4-1.33V38ZM40,14H20V12H40Z"/><text x="0" y="63" fill="#000000" font-size="5px" font-weight="bold" font-family="'Helvetica Neue', Helvetica, Arial-Unicode, Arial, Sans-serif">Created by Deemak Daksina</text><text x="0" y="68" fill="#000000" font-size="5px" font-weight="bold" font-family="'Helvetica Neue', Helvetica, Arial-Unicode, Arial, Sans-serif">from the Noun Project</text></svg>