<svg xmlns="http://www.w3.org/2000/svg" viewBox="0 0 48 60" x="0px" y="0px"><title>circulaw, saw, equipment</title><g><path d="M43,26.24H41.83A18,18,0,0,0,24,10.24a17.63,17.63,0,0,0-2.64.21l-3.71-3.7a5,5,0,0,0-7.07,0L5.5,11.82a5,5,0,0,0,0,7.07l2,2,0,0a17.9,17.9,0,0,0-1.42,5.29H5a1,1,0,1,0,0,2H9.71l-1,1.26a1,1,0,0,0,.42,1.55l1.64.66-.69,1.63a1,1,0,0,0,.05.9,1,1,0,0,0,.75.49l1.76.21-.25,1.76a1,1,0,0,0,.28.85,1,1,0,0,0,.85.28l1.76-.25.22,1.77a1,1,0,0,0,.49.74,1,1,0,0,0,.89.06l1.63-.7.67,1.65a1,1,0,0,0,.66.59,1,1,0,0,0,.88-.18l1.4-1.1,1.07,1.43a1,1,0,0,0,.8.4,1,1,0,0,0,.8-.4l1.06-1.43,1.4,1.1a1,1,0,0,0,.88.18,1,1,0,0,0,.67-.59l.66-1.65,1.63.7a1,1,0,0,0,.9-.06,1,1,0,0,0,.49-.74l.21-1.77,1.76.25a1,1,0,0,0,.85-.28,1,1,0,0,0,.28-.85l-.25-1.76,1.77-.21a1,1,0,0,0,.74-.49,1,1,0,0,0,.06-.9l-.7-1.63,1.65-.66a1,1,0,0,0,.59-.67,1,1,0,0,0-.18-.88l-1-1.26H43a1,1,0,0,0,0-2ZM6.92,17.48a3,3,0,0,1,0-4.24L12,8.17a3,3,0,0,1,4.24,0L19,11a18.09,18.09,0,0,0-10.5,8.12ZM36.06,28.66l.81,1-1.21.48A1.71,1.71,0,0,0,35,31a1,1,0,0,0,0,.77l.5,1.18-1.29.16a1.57,1.57,0,0,0-.81.56,1,1,0,0,0-.2.76l.19,1.29-1.29-.19a1.71,1.71,0,0,0-.94.34,1,1,0,0,0-.38.67l-.15,1.29-1.19-.5a1.64,1.64,0,0,0-1,.08,1,1,0,0,0-.55.55l-.48,1.21-1-.81a1.53,1.53,0,0,0-1-.17,1,1,0,0,0-.68.39l-.77,1-.78-1a1.65,1.65,0,0,0-.88-.42,1,1,0,0,0-.77.2l-1,.81-.49-1.21a1.71,1.71,0,0,0-.78-.64,1,1,0,0,0-.77,0l-1.18.5-.16-1.29a1.57,1.57,0,0,0-.56-.81,1,1,0,0,0-.75-.2l-1.29.19.18-1.29a1.63,1.63,0,0,0-.33-.94,1,1,0,0,0-.67-.38l-1.3-.16.5-1.18a1.65,1.65,0,0,0-.08-1,1,1,0,0,0-.55-.55l-1.2-.48.81-1a1.15,1.15,0,0,0,.14-.42H20a4,4,0,0,0,8,0h7.89A.93.93,0,0,0,36.06,28.66ZM22,28.24a2,2,0,1,1,2,2A2,2,0,0,1,22,28.24Zm5.44-2a4,4,0,0,0-6.89,0H8.13a16,16,0,0,1,31.71,0Z"/><path d="M20.76,14.63a13.91,13.91,0,0,0-8.55,6.07,1,1,0,0,0,.84,1.54,1,1,0,0,0,.85-.46,11.9,11.9,0,0,1,7.32-5.21,1,1,0,0,0,.74-1.2A1,1,0,0,0,20.76,14.63Z"/></g><text x="0" y="63" fill="#000000" font-size="5px" font-weight="bold" font-family="'Helvetica Neue', Helvetica, Arial-Unicode, Arial, Sans-serif">Created by Deemak Daksina</text><text x="0" y="68" fill="#000000" font-size="5px" font-weight="bold" font-family="'Helvetica Neue', Helvetica, Arial-Unicode, Arial, Sans-serif">from the Noun Project</text></svg>