<svg xmlns="http://www.w3.org/2000/svg" version="1.1" viewBox="-5.0 -10.0 110.0 135.0">
 <path d="m3.5625 55.766 16.262-13.027c0.3125-0.28906 0.73047-0.46484 1.1875-0.46484h7.5703l2.3125-22.969c0.089844-0.89844 0.84766-1.5742 1.7383-1.5703l10.156-0.007813c0.95313 0 1.7305 0.76563 1.75 1.7148l2.3008 22.832h6.3281l2.3125-22.969c0.089843-0.89844 0.84766-1.5742 1.7383-1.5703l10.156-0.007813c0.95312 0 1.7305 0.76563 1.75 1.7148l2.3008 22.832h7.5703c0.46094 0 0.875 0.17578 1.1875 0.46484l16.262 13.027c0.45703 0.31641 0.75781 0.84375 0.75781 1.4414v4.9766c0 0.96484-0.78125 1.75-1.75 1.75-0.96484 0-1.75-0.78125-1.75-1.75v-3.2266h-2.0547v19.816h2.0547v-2.8672c0-0.96484 0.78125-1.75 1.75-1.75 0.96484 0 1.75 0.78125 1.75 1.75v4.6172c0 0.96484-0.78125 1.75-1.75 1.75h-90.883c-0.96484 0-1.75-0.78125-1.75-1.75v-23.32c0-0.59766 0.30078-1.125 0.75781-1.4414zm17.449-9.5039-14.703 11.781v20.734h4.4414v-6.2266c0-1.2383 0.50781-2.3672 1.3242-3.1836 0.81641-0.81641 1.9453-1.3242 3.1836-1.3242 1.2383 0 2.3672 0.50781 3.1836 1.3242 0.81641 0.81641 1.3242 1.9453 1.3242 3.1836v6.2266h2.5039v-6.2266c0-1.2383 0.50781-2.3672 1.3242-3.1836 0.81641-0.81641 1.9453-1.3242 3.1836-1.3242 1.2383 0 2.3672 0.50781 3.1836 1.3242 0.81641 0.81641 1.3242 1.9453 1.3242 3.1836v6.2266h4.4414v-20.734l-14.703-11.781zm4.9766-0.48438 12.086 9.6797h52.395l-12.086-9.6797zm13.227 13.184v19.816h2.0547v-19.816zm-13.449 19.816h2.0117v-6.2266c0-0.27734-0.11328-0.52734-0.29297-0.70703-0.18359-0.18359-0.43359-0.29297-0.70703-0.29297-0.27734 0-0.52734 0.11328-0.71094 0.29297-0.18359 0.18359-0.29297 0.43359-0.29297 0.70703v6.2266zm-11.516 0h2.0117v-6.2266c0-0.27734-0.11328-0.52734-0.29297-0.70703-0.18359-0.18359-0.43359-0.29297-0.70703-0.29297-0.27734 0-0.52734 0.11328-0.71094 0.29297-0.18359 0.18359-0.29297 0.43359-0.29297 0.70703v6.2266zm79.441-10.137c0-0.96484 0.78125-1.75 1.75-1.75 0.96484 0 1.75 0.78125 1.75 1.75v0.8125c0 0.96484-0.78125 1.75-1.75 1.75-0.96484 0-1.75-0.78125-1.75-1.75zm-13.773 10.137h2.3594v-10.137c0-0.96484 0.78125-1.75 1.75-1.75 0.96484 0 1.75 0.78125 1.75 1.75v10.137h2.3594v-19.816h-2.3594v3.2266c0 0.96484-0.78125 1.75-1.75 1.75-0.96484 0-1.75-0.78125-1.75-1.75v-3.2266h-2.3594zm-17.383 0h2.168v-19.816h-2.3594v19.816zm5.668 0h2.3594v-19.816h-2.3594zm5.8594 0h2.3555v-19.816h-2.3555zm-29.289 0h2.3594v-19.816h-2.3594zm5.8594 0h2.3555v-19.816h-2.3555zm5.8555 0h2.3594v-19.816h-2.3594zm-24.398-36.5h11.242l-1.4805-14.664h-8.2891l-1.4805 14.664zm24.582 0h11.242l-1.4805-14.664h-8.2891l-1.4805 14.664zm-35.66 9.5664c1.4141 0 2.707 0.57812 3.6406 1.5156 0.9375 0.92578 1.5156 2.2188 1.5156 3.6406 0 1.4141-0.57812 2.707-1.5156 3.6406-0.92578 0.9375-2.2188 1.5156-3.6406 1.5156-1.4141 0-2.6992-0.57422-3.6367-1.5117-0.94141-0.94531-1.5195-2.2305-1.5195-3.6406 0-1.4141 0.57812-2.6992 1.5117-3.6367 0.94531-0.94141 2.2305-1.5195 3.6406-1.5195zm1.1719 3.9805c-0.29297-0.29688-0.70703-0.48047-1.1719-0.48047-0.46094 0-0.87109 0.18359-1.168 0.47656-0.30078 0.30078-0.48438 0.71484-0.48438 1.1719 0 0.46094 0.18359 0.875 0.47656 1.1719 0.30078 0.30078 0.71484 0.48438 1.1719 0.48438 0.45703 0 0.87109-0.1875 1.1719-0.48438 0.30078-0.29297 0.48437-0.70703 0.48437-1.1719 0-0.45703-0.1875-0.87109-0.48437-1.1719zm19.027-34.598h-7.0039l-0.28906 2.8828h7.5859l-0.28906-2.8828zm24.582 0h-7.0039l-0.28906 2.8828h7.5859l-0.28906-2.8828z"/>
<text x="0.0" y="117.5" font-size="5.0" font-weight="bold" font-family="Arbeit Regular, Helvetica, Arial-Unicode, Arial, Sans-serif" fill="#000000">Created by Siti Zaenab</text><text x="0.0" y="122.5" font-size="5.0" font-weight="bold" font-family="Arbeit Regular, Helvetica, Arial-Unicode, Arial, Sans-serif" fill="#000000">from Noun Project</text></svg>