<svg xmlns="http://www.w3.org/2000/svg" viewBox="0 0 48 60" x="0px" y="0px"><title>wheelbarrow, construction, cart</title><path d="M41,29a5.08,5.08,0,0,0-1.88.37l-1.29-1.92A1,1,0,0,0,37,27H32.87l7-10.45a1,1,0,0,0,.05-1A1,1,0,0,0,39,15H9.62L7.89,11.55A1,1,0,0,0,7,11H3a1,1,0,0,0,0,2H6.38l7.56,15.12L12,35.76a1,1,0,0,0,.18.86A1,1,0,0,0,13,37h2a1,1,0,0,0,.8-.4L21.5,29h15l1,1.48A5,5,0,1,0,41,29ZM14.5,35h-.22l1.5-6H19Zm1.12-8-5-10H37.13L30.46,27ZM41,37a3,3,0,0,1-3-3,3,3,0,0,1,.61-1.79l1.56,2.34A1,1,0,0,0,41,35a.94.94,0,0,0,.55-.17,1,1,0,0,0,.28-1.38L40.27,31.1A2.92,2.92,0,0,1,41,31a3,3,0,0,1,0,6Z"/><text x="0" y="63" fill="#000000" font-size="5px" font-weight="bold" font-family="'Helvetica Neue', Helvetica, Arial-Unicode, Arial, Sans-serif">Created by Deemak Daksina</text><text x="0" y="68" fill="#000000" font-size="5px" font-weight="bold" font-family="'Helvetica Neue', Helvetica, Arial-Unicode, Arial, Sans-serif">from the Noun Project</text></svg>