<svg xmlns="http://www.w3.org/2000/svg" version="1.1" viewBox="-5.0 -10.0 110.0 135.0">
 <path d="m95.23 19.469-3.1914-0.42188c-0.19922-0.57812-0.42969-1.1406-0.69141-1.6797l1.9492-2.5508c0.46094-0.60156 0.39844-1.4414-0.12891-1.9688l-5.8594-5.8594c-0.53125-0.53125-1.3789-0.58984-1.9688-0.12891l-2.5508 1.9492c-0.53906-0.25-1.1016-0.48047-1.6797-0.69141l-0.42188-3.1914c-0.10156-0.75-0.73047-1.3008-1.4883-1.3008h-8.2891c-0.75 0-1.3906 0.55859-1.4883 1.3008l-0.42188 3.1914c-0.57812 0.19922-1.1406 0.42969-1.6797 0.69141l-2.5508-1.9492c-0.60156-0.46094-1.4414-0.39844-1.9688 0.12891l-5.8594 5.8594c-0.53125 0.53125-0.58984 1.3789-0.12891 1.9688l1.9492 2.5508c-0.25 0.53906-0.48047 1.1016-0.69141 1.6797l-3.1914 0.42188c-0.75 0.10156-1.3008 0.73047-1.3008 1.4883v8.2891c0 0.75 0.55859 1.3906 1.3008 1.4883l3.1914 0.42188c0.19922 0.57812 0.42969 1.1406 0.69141 1.6797l-1.9492 2.5508c-0.46094 0.60156-0.39844 1.4414 0.12891 1.9688l5.8594 5.8594c0.53125 0.53125 1.3789 0.58984 1.9688 0.12891l2.5508-1.9492c0.53906 0.25 1.1016 0.48047 1.6797 0.69141l0.42188 3.1914c0.058594 0.42188 0.28906 0.76953 0.62109 1v8.0898l-5.3594-5.3594c-0.53125-0.53125-1.3789-0.58984-1.9688-0.12891l-3.25 2.4805c-0.76172-0.37109-1.5508-0.69141-2.3594-0.96875l-0.53906-4.0586c-0.10156-0.75-0.73047-1.3008-1.4883-1.3008h-10.051c-0.75 0-1.3906 0.55859-1.4883 1.3008l-0.53906 4.0586c-0.82031 0.28125-1.6094 0.60938-2.3594 0.96875l-3.25-2.4805c-0.60156-0.46094-1.4414-0.39844-1.9688 0.12891l-5.3594 5.3516v-8.1094c0.30859-0.23047 0.53906-0.57812 0.58984-0.98828l0.42188-3.1914c0.57812-0.19922 1.1406-0.42969 1.6797-0.69141l2.5508 1.9492c0.60156 0.46094 1.4414 0.39844 1.9688-0.12891l5.8594-5.8594c0.53125-0.53125 0.58984-1.3789 0.12891-1.9688l-1.9492-2.5508c0.25-0.53906 0.48047-1.1016 0.69141-1.6797l3.1914-0.42188c0.75-0.10156 1.3008-0.73047 1.3008-1.4883v-8.2891c0-0.75-0.55859-1.3906-1.3008-1.4883l-3.1914-0.42188c-0.19922-0.57812-0.42969-1.1406-0.69141-1.6797l1.9492-2.5508c0.46094-0.60156 0.39844-1.4414-0.12891-1.9688l-5.8594-5.8594c-0.53125-0.53125-1.3789-0.58984-1.9688-0.12891l-2.5508 1.9492c-0.53906-0.25-1.1016-0.48047-1.6797-0.69141l-0.42188-3.1914c-0.10156-0.75-0.73047-1.3008-1.4883-1.3008h-8.2891c-0.75 0-1.3906 0.55859-1.4883 1.3008l-0.42188 3.1914c-0.57812 0.19922-1.1406 0.42969-1.6797 0.69141l-2.5508-1.9492c-0.60156-0.46094-1.4414-0.39844-1.9688 0.12891l-5.8594 5.8594c-0.53125 0.53125-0.58984 1.3789-0.12891 1.9688l1.9492 2.5508c-0.25 0.53906-0.48047 1.1016-0.69141 1.6797l-3.1914 0.42188c-0.75 0.10156-1.3008 0.73047-1.3008 1.4883v8.2891c0 0.75 0.55859 1.3906 1.3008 1.4883l3.1914 0.42188c0.19922 0.57812 0.42969 1.1406 0.69141 1.6797l-1.9492 2.5508c-0.46094 0.60156-0.39844 1.4414 0.12891 1.9688l5.8594 5.8594c0.53125 0.53125 1.3789 0.58984 1.9688 0.12891l2.5508-1.9492c0.53906 0.25 1.1016 0.48047 1.6797 0.69141l0.42188 3.1914c0.039062 0.28906 0.17969 0.53906 0.35156 0.75v9.7188c-2.8711 1.6289-4.8086 4.7109-4.8086 8.2383 0 5.1992 4.2109 9.4297 9.3906 9.4688v2.3281c0 0.75 0.55859 1.3906 1.3008 1.4883l4.0586 0.53906c0.28125 0.82031 0.60937 1.6094 0.96875 2.3594l-2.4883 3.25c-0.46094 0.60156-0.39844 1.4414 0.12891 1.9688l7.1094 7.1094c0.53125 0.53125 1.3789 0.58984 1.9688 0.12891l3.25-2.4805c0.76172 0.37109 1.5508 0.69141 2.3594 0.96875l0.53906 4.0586c0.10156 0.75 0.73047 1.3008 1.4883 1.3008h10.051c0.75 0 1.3906-0.55859 1.4883-1.3008l0.53906-4.0586c0.82031-0.28125 1.6094-0.60938 2.3594-0.96875l3.25 2.4805c0.60156 0.46094 1.4414 0.39844 1.9688-0.12891l7.1094-7.1094c0.53125-0.53125 0.58984-1.3789 0.12891-1.9688l-2.4805-3.25c0.37109-0.76172 0.69141-1.5508 0.96875-2.3594l4.0586-0.53906c0.75-0.10156 1.3008-0.73047 1.3008-1.4883v-2.3906c4.7188-0.53125 8.4102-4.5508 8.4102-9.4102 0-3.1016-1.5117-5.8594-3.8203-7.5898v-10.398c0.16016-0.21094 0.28906-0.44141 0.32812-0.71875l0.42188-3.1914c0.57812-0.19922 1.1406-0.42969 1.6797-0.69141l2.5508 1.9492c0.60156 0.46094 1.4414 0.39844 1.9688-0.12891l5.8594-5.8594c0.53125-0.53125 0.58984-1.3789 0.12891-1.9688l-1.9492-2.5508c0.25-0.53906 0.48047-1.1016 0.69141-1.6797l3.1914-0.42188c0.75-0.10156 1.3008-0.73047 1.3008-1.4883v-8.2891c0-0.75-0.55859-1.3906-1.3008-1.4883zm-19.441 50.883v-4.6289c0-0.75-0.55859-1.3906-1.3008-1.4883l-4.0586-0.53906c-0.28125-0.82031-0.60156-1.6094-0.96875-2.3594l2.4297-3.1797c0.85938-0.42188 1.8086-0.66016 2.8281-0.66016 3.5703 0 6.4805 2.9102 6.4805 6.4805 0 3.2109-2.3398 5.8711-5.4102 6.3789zm-15.238 16.828c-0.46875-0.35938-1.1094-0.41016-1.6289-0.12891-1.1094 0.60156-2.3203 1.1016-3.5898 1.4805-0.57031 0.17188-0.98047 0.64844-1.0586 1.2383l-0.48828 3.6992h-7.4297l-0.48828-3.6992c-0.078126-0.58984-0.48828-1.0703-1.0586-1.2383-1.2812-0.37891-2.4805-0.87109-3.5898-1.4805-0.51953-0.28125-1.1602-0.23047-1.6289 0.12891l-2.9492 2.2617-5.25-5.25 2.2617-2.9609c0.35938-0.46875 0.41016-1.1094 0.12891-1.6289-0.60156-1.1094-1.1016-2.3203-1.4805-3.5898-0.17188-0.57031-0.64844-0.98047-1.2383-1.0586l-3.6992-0.48828v-7.4297l3.6992-0.48828c0.58984-0.078125 1.0703-0.48828 1.2383-1.0586 0.37891-1.2812 0.87109-2.4805 1.4805-3.5898 0.28125-0.51953 0.23047-1.1602-0.12891-1.6289l-2.2617-2.9609 5.25-5.25 2.9492 2.2617c0.46875 0.35938 1.1094 0.41016 1.6289 0.12891 1.1094-0.60156 2.3203-1.1016 3.5898-1.4805 0.57031-0.17188 0.98047-0.64844 1.0586-1.2383l0.48828-3.6992h7.4297l0.48828 3.6992c0.078124 0.58984 0.48828 1.0703 1.0586 1.2383 1.2812 0.37891 2.4805 0.87891 3.5898 1.4805 0.51953 0.28125 1.1602 0.23047 1.6289-0.12891l2.9609-2.2617 5.25 5.25-2.2617 2.9609c-0.35938 0.46875-0.41016 1.1094-0.12891 1.6289 0.60156 1.1094 1.1016 2.3203 1.4805 3.5898 0.17188 0.57031 0.64844 0.98047 1.2383 1.0586l3.6992 0.48828v7.4297l-3.6992 0.48828c-0.58984 0.078125-1.0703 0.48828-1.2383 1.0586-0.37891 1.2812-0.87109 2.4883-1.4805 3.5898-0.28125 0.51953-0.23047 1.1602 0.12891 1.6289l2.2617 2.9609-5.25 5.25zm-35.52-57.309c-2.6289 0-4.7695-2.1406-4.7695-4.7695 0-2.6289 2.1406-4.7695 4.7695-4.7695s4.7695 2.1406 4.7695 4.7695c0 2.6289-2.1406 4.7695-4.7695 4.7695zm2.0391 16.699v8.3086c-0.83984-0.25-1.7305-0.37891-2.6484-0.37891-0.57031 0-1.1211 0.058594-1.6719 0.16016v-8.0781h4.3203zm-2.6484 10.918c2.7891 0 5.1602 1.7695 6.0703 4.2383-0.28906 0.62891-0.55859 1.2891-0.78906 1.9609l-4.0586 0.53906c-0.75 0.10156-1.3008 0.73047-1.3008 1.4883v4.7188c-3.5312-0.039063-6.3906-2.9297-6.3906-6.4688 0-3.5391 2.9102-6.4805 6.4805-6.4805zm50.648-27.617c-2.6289 0-4.7695-2.1406-4.7695-4.7695 0-2.6289 2.1406-4.7695 4.7695-4.7695 2.6289 0 4.7695 2.1406 4.7695 4.7695 0 2.6289-2.1406 4.7695-4.7695 4.7695zm-0.35937 24.617c-0.57031 0-1.1211 0.058594-1.6602 0.16016v-8.0781h4.3203v8.3086c-0.83984-0.25-1.7305-0.39062-2.6602-0.39062z"/>
 <path d="m50.059 61.641c-5.0195 0-9.1094 4.0898-9.1094 9.1094s4.0898 9.1094 9.1094 9.1094c5.0195 0 9.1094-4.0898 9.1094-9.1094s-4.0898-9.1094-9.1094-9.1094zm6.1133 9.1094c0 3.3711-2.7383 6.1094-6.1094 6.1094s-6.1094-2.7383-6.1094-6.1094 2.7383-6.1094 6.1094-6.1094 6.1094 2.7383 6.1094 6.1094z"/>
<text x="0.0" y="117.5" font-size="5.0" font-weight="bold" font-family="Arbeit Regular, Helvetica, Arial-Unicode, Arial, Sans-serif" fill="#000000">Created by insdesign86</text><text x="0.0" y="122.5" font-size="5.0" font-weight="bold" font-family="Arbeit Regular, Helvetica, Arial-Unicode, Arial, Sans-serif" fill="#000000">from Noun Project</text></svg>