<?xml version="1.0" encoding="UTF-8"?>
<!DOCTYPE svg PUBLIC "-//W3C//DTD SVG 1.1//EN" "http://www.w3.org/Graphics/SVG/1.1/DTD/svg11.dtd">
<!-- Creator: CorelDRAW -->
<svg xmlns="http://www.w3.org/2000/svg" xml:space="preserve" width="3.7899in" height="1.09112in" version="1.1" style="shape-rendering:geometricPrecision; text-rendering:geometricPrecision; image-rendering:optimizeQuality; fill-rule:evenodd; clip-rule:evenodd"
viewBox="0 0 3802.05 1094.62"
 xmlns:xlink="http://www.w3.org/1999/xlink"
 xmlns:xodm="http://www.corel.com/coreldraw/odm/2003">
 <defs>
  <style type="text/css">
   <![CDATA[
    .fil1 {fill:#FEFEFE;fill-rule:nonzero}
    .fil0 {fill:#259ED9;fill-rule:nonzero}
    .fil2 {fill:#00AFEF;fill-rule:nonzero}
   ]]>
  </style>
 </defs>
 <g id="Layer_x0020_1">
  <metadata id="CorelCorpID_0Corel-Layer"/>
  <polygon class="fil0" points="770.62,184.04 15.44,184.04 116.01,16.4 873.98,16.4 "/>
  <polygon class="fil0" points="123.34,773.88 -0,546.29 157.13,257.67 673.68,257.67 540.26,476.24 287.51,472.34 "/>
  <polygon class="fil1" points="171.2,862.73 687.76,862.73 554.34,644.16 301.59,648.07 "/>
  <path class="fil2" d="M916.09 410.51l109.66 0 37.68 -140.59 185.57 0 24.19 -90.54 -185.58 0 17.99 -66.92 205.25 0 25.87 -95.6 -314.35 0 -106.28 393.64zm363.84 0l106.85 0 81.54 -304.22 -106.28 0 -82.11 304.22zm87.17 -331.78l111.34 0 21.37 -78.73 -111.35 0 -21.36 78.73zm80.41 331.78l106.85 0 43.3 -161.39c9,-34.3 26.99,-55.11 56.23,-55.11 22.49,0 34.31,11.81 34.31,32.05 0,6.75 -1.12,16.87 -3.38,25.31l-42.74 159.14 106.29 0 44.43 -165.33c5.06,-19.68 8.44,-38.24 8.44,-54.55 0,-56.23 -32.62,-91.1 -88.29,-91.1 -35.99,0 -65.8,19.68 -86.6,41.61l9.55 -34.86 -106.84 0 -81.54 304.22zm682.69 -122.59c7.31,-20.25 11.81,-42.18 11.81,-62.98 0,-65.8 -39.37,-125.4 -128.78,-125.4 -53.42,0 -96.73,20.25 -128.22,52.29 -35.43,34.31 -54.55,83.23 -54.55,131.03 0,82.1 55.11,134.96 145.09,134.96 52.3,0 92.22,-18.56 123.72,-45.55l-49.48 -58.48c-23.06,17.43 -42.18,24.18 -64.11,24.18 -37.68,0 -55.67,-20.24 -57.92,-50.05l202.45 0zm-173.21 -88.85c13.5,-14.05 30.93,-20.8 48.93,-20.8 27.55,0 41.05,17.43 41.05,38.24 0,6.74 -0.56,12.37 -2.25,16.86l-109.1 0c5.06,-13.5 11.81,-24.74 21.37,-34.3zm329.54 302.54c63.54,0 105.16,-13.5 136.08,-44.43 24.74,-24.74 38.8,-54.54 53.98,-109.09l64.67 -241.8 -106.28 0 -11.81 43.3c-17.43,-27 -44.99,-49.48 -92.23,-49.48 -40.49,0 -77.04,16.3 -105.72,44.99 -33.74,33.74 -53.42,81.54 -53.42,133.28 0,68.04 53.98,105.16 107.97,105.16 38.24,0 65.24,-12.93 92.79,-37.68l-2.25 7.31c-5.62,21.93 -14.05,38.24 -24.74,48.92 -15.74,15.75 -34.86,23.06 -63.54,23.06 -33.74,0 -73.67,-10.12 -107.41,-32.06l-48.36 66.92c40.49,25.3 101.22,41.61 160.27,41.61zm40.49 -195.13c-29.81,0 -49.49,-18 -49.49,-46.68 0,-21.94 7.87,-40.49 23.05,-55.11 12.94,-13.5 28.68,-20.24 47.8,-20.24 31.49,0 51.18,19.68 51.18,48.36 0,20.24 -7.31,37.68 -22.5,52.86 -12.94,12.93 -30.36,20.81 -50.05,20.81zm189.51 104.03l106.85 0 24.74 -91.66c19.68,-73.67 56.8,-105.16 115.28,-105.16l9 0 30.36 -112.47c-49.49,-3.93 -84.91,23.06 -114.15,66.36l16.31 -61.29 -106.85 0 -81.54 304.22z"/>
  <path class="fil2" d="M2845.51 416.69c35.99,0 61.85,-14.62 88.29,-39.37l-9 33.18 105.16 0 44.99 -167.58c3.94,-15.75 6.19,-30.37 6.19,-44.42 0,-60.73 -43.86,-96.16 -135.53,-96.16 -44.43,0 -87.16,7.31 -119.22,18.55l15.19 77.05c21.93,-8.43 53.42,-14.62 82.1,-14.62 37.68,0 51.74,12.37 51.74,32.62 0,6.75 -1.13,12.94 -2.82,18.56l-1.12 3.94c-24.18,-7.31 -49.49,-11.81 -77.04,-11.81 -45.55,0 -81.54,12.93 -105.72,35.99 -18,18 -28.12,42.18 -28.12,71.42 0,50.05 35.43,82.67 84.92,82.67zm49.48 -65.79c-17.99,0 -30.36,-10.69 -30.36,-28.12 0,-11.81 3.94,-21.37 11.81,-29.25 10.12,-10.12 24.74,-15.18 43.87,-15.18 15.18,0 28.67,3.37 39.92,7.31l-2.81 10.12c-8.44,31.5 -34.86,55.12 -62.42,55.12zm403.21 59.6l106.85 0 109.66 -410.51 -106.28 0 -39.92 147.9c-18.56,-28.68 -46.68,-48.36 -92.23,-48.36 -39.92,0 -77.04,17.43 -106.28,46.67 -35.42,35.43 -57.36,86.04 -57.36,146.21 0,78.73 47.8,124.84 107.98,124.84 33.73,0 62.42,-15.74 86.6,-38.81l-8.99 32.06zm-25.87 -81.54c-31.5,0 -52.31,-20.25 -52.31,-53.42 0,-26.99 10.69,-50.61 26.43,-66.36 12.93,-12.94 30.36,-21.38 48.36,-21.38 31.49,0 52.86,21.93 52.86,53.99 0,26.43 -10.12,48.36 -26.43,65.8 -13.49,12.93 -30.93,21.37 -48.92,21.37zm517.92 -41.05c7.31,-20.25 11.81,-42.18 11.81,-62.98 0,-65.8 -39.36,-125.4 -128.77,-125.4 -53.43,0 -96.73,20.25 -128.22,52.29 -35.42,34.31 -54.55,83.23 -54.55,131.03 0,82.1 55.11,134.96 145.09,134.96 52.3,0 92.22,-18.56 123.71,-45.55l-49.49 -58.48c-23.05,17.43 -42.18,24.18 -64.11,24.18 -37.67,0 -55.67,-20.24 -57.92,-50.05l202.45 0zm-173.2 -88.85c13.5,-14.05 30.93,-20.8 48.92,-20.8 27.55,0 41.05,17.43 41.05,38.24 0,6.74 -0.56,12.37 -2.25,16.86l-109.09 0c5.06,-13.5 11.81,-24.74 21.37,-34.3z"/>
  <path class="fil1" d="M917.25 803.72l263.51 0 20.48 -76.82 -174.12 0 13.97 -52.14 155.5 0 19.09 -70.77 -155.5 0 13.51 -49.81 171.32 0 20.95 -76.35 -260.72 0 -87.99 325.9zm307.27 0l88.46 0 35.85 -133.62c7.45,-28.4 22.34,-45.62 46.55,-45.62 18.62,0 28.4,9.78 28.4,26.54 0,5.59 -0.93,13.97 -2.8,20.95l-35.38 131.76 87.99 0 36.78 -136.87c4.19,-16.3 6.99,-31.66 6.99,-45.16 0,-46.55 -27.01,-75.42 -73.1,-75.42 -29.8,0 -54.47,16.3 -71.69,34.45l7.91 -28.87 -88.45 0 -67.51 251.87zm414.35 75.42c52.61,0 87.06,-11.17 112.67,-36.78 20.48,-20.49 32.12,-45.16 44.69,-90.32l53.53 -200.19 -87.99 0 -9.78 35.85c-14.43,-22.35 -37.24,-40.97 -76.35,-40.97 -33.52,0 -63.79,13.5 -87.53,37.24 -27.93,27.94 -44.22,67.51 -44.22,110.34 0,56.33 44.69,87.05 89.39,87.05 31.65,0 54,-10.71 76.82,-31.19l-1.86 6.05c-4.66,18.15 -11.64,31.65 -20.49,40.5 -13.03,13.03 -28.86,19.09 -52.61,19.09 -27.94,0 -60.99,-8.38 -88.93,-26.54l-40.04 55.4c33.52,20.95 83.8,34.46 132.69,34.46zm33.52 -161.56c-24.68,0 -40.97,-14.9 -40.97,-38.64 0,-18.16 6.52,-33.52 19.08,-45.63 10.71,-11.17 23.75,-16.75 39.58,-16.75 26.07,0 42.37,16.29 42.37,40.04 0,16.75 -6.05,31.19 -18.62,43.76 -10.71,10.7 -25.15,17.22 -41.44,17.22zm158.76 86.13l88.46 0 67.5 -251.87 -87.99 0 -67.97 251.87zm72.16 -274.69l92.18 0 17.69 -65.18 -92.18 0 -17.69 65.18zm66.58 274.69l88.45 0 35.85 -133.62c7.45,-28.4 22.35,-45.62 46.56,-45.62 18.63,0 28.4,9.78 28.4,26.54 0,5.59 -0.93,13.97 -2.79,20.95l-35.38 131.76 87.99 0 36.78 -136.87c4.19,-16.3 6.99,-31.66 6.99,-45.16 0,-46.55 -27.01,-75.42 -73.09,-75.42 -29.8,0 -54.47,16.3 -71.7,34.45l7.92 -28.87 -88.46 0 -67.5 251.87zm565.19 -101.49c6.06,-16.76 9.78,-34.92 9.78,-52.14 0,-54.47 -32.6,-103.82 -106.62,-103.82 -44.23,0 -80.07,16.76 -106.15,43.3 -29.33,28.4 -45.16,68.91 -45.16,108.48 0,67.97 45.63,111.73 120.12,111.73 43.3,0 76.35,-15.36 102.42,-37.71l-40.97 -48.42c-19.09,14.43 -34.92,20.02 -53.08,20.02 -31.19,0 -46.09,-16.76 -47.96,-41.44l167.6 0zm-143.39 -73.56c11.17,-11.64 25.61,-17.22 40.5,-17.22 22.81,0 33.99,14.43 33.99,31.66 0,5.58 -0.47,10.24 -1.86,13.96l-90.32 0c4.19,-11.17 9.78,-20.48 17.69,-28.4zm423.66 73.56c6.05,-16.76 9.77,-34.92 9.77,-52.14 0,-54.47 -32.58,-103.82 -106.61,-103.82 -44.23,0 -80.08,16.76 -106.15,43.3 -29.33,28.4 -45.16,68.91 -45.16,108.48 0,67.97 45.62,111.73 120.12,111.73 43.3,0 76.35,-15.36 102.43,-37.71l-40.97 -48.42c-19.09,14.43 -34.92,20.02 -53.08,20.02 -31.19,0 -46.09,-16.76 -47.96,-41.44l167.61 0zm-143.4 -73.56c11.17,-11.64 25.61,-17.22 40.5,-17.22 22.81,0 33.99,14.43 33.99,31.66 0,5.58 -0.46,10.24 -1.86,13.96l-90.32 0c4.19,-11.17 9.78,-20.48 17.69,-28.4zm152.24 175.06l88.46 0 20.48 -75.88c16.3,-60.99 47.03,-87.07 95.45,-87.07l7.45 0 25.14 -93.11c-40.97,-3.26 -70.3,19.08 -94.51,54.94l13.51 -50.75 -88.46 0 -67.51 251.87zm202.05 0l88.46 0 67.51 -251.87 -88 0 -67.97 251.87zm72.17 -274.69l92.18 0 17.69 -65.18 -92.18 0 -17.69 65.18zm66.58 274.69l88.46 0 35.85 -133.62c7.45,-28.4 22.34,-45.62 46.55,-45.62 18.62,0 28.4,9.78 28.4,26.54 0,5.59 -0.93,13.97 -2.79,20.95l-35.38 131.76 87.99 0 36.78 -136.87c4.19,-16.3 6.99,-31.66 6.99,-45.16 0,-46.55 -27.01,-75.42 -73.1,-75.42 -29.8,0 -54.47,16.3 -71.7,34.45l7.91 -28.87 -88.45 0 -67.51 251.87zm414.35 75.42c52.61,0 87.06,-11.17 112.67,-36.78 20.48,-20.49 32.12,-45.16 44.69,-90.32l53.53 -200.19 -87.99 0 -9.78 35.85c-14.43,-22.35 -37.24,-40.97 -76.35,-40.97 -33.52,0 -63.79,13.5 -87.53,37.24 -27.93,27.94 -44.22,67.51 -44.22,110.34 0,56.33 44.69,87.05 89.38,87.05 31.66,0 54.01,-10.71 76.82,-31.19l-1.86 6.05c-4.66,18.15 -11.64,31.65 -20.49,40.5 -13.03,13.03 -28.86,19.09 -52.61,19.09 -27.94,0 -60.99,-8.38 -88.93,-26.54l-40.04 55.4c33.52,20.95 83.8,34.46 132.69,34.46zm33.52 -161.56c-24.68,0 -40.97,-14.9 -40.97,-38.64 0,-18.16 6.52,-33.52 19.09,-45.63 10.71,-11.17 23.75,-16.75 39.58,-16.75 26.07,0 42.37,16.29 42.37,40.04 0,16.75 -6.05,31.19 -18.62,43.76 -10.71,10.7 -25.15,17.22 -41.44,17.22z"/>
  <path class="fil1" d="M268.2 1074.36c18.53,0 31.86,-10.4 31.86,-26.4l0 -0.26c0,-14.27 -9.6,-21.73 -30.4,-26.4 -20.66,-4.26 -25.32,-9.33 -25.32,-18.12l0 -0.27c0,-8.53 7.6,-15.06 19.86,-15.06 9.59,0 18.26,3.06 26.92,10.13l6.13 -8.13c-9.59,-7.6 -19.06,-11.47 -32.79,-11.47 -17.73,0 -30.66,10.93 -30.66,25.46l0 0.27c0,15.32 9.86,22.26 31.33,26.92 19.59,4.26 24.25,9.06 24.25,17.73l0 0.26c0,9.2 -8.13,15.87 -20.79,15.87 -12.94,0 -22.26,-4.26 -31.99,-13.2l-6.53 7.73c11.2,10.13 23.19,14.93 38.12,14.93zm76.91 0.13c11.86,0 18.93,-6 23.6,-13.46l0 12 10.13 0 0 -68.91 -10.13 0 0 39.46c0,12.93 -8.93,21.59 -20.66,21.59 -12.27,0 -19.06,-8 -19.06,-20.79l0 -40.25 -10.27 0 0 42.79c0,16.4 9.86,27.59 26.39,27.59zm56.78 19.86l10.27 0 0 -34.53c5.33,7.87 13.59,14.67 26.39,14.67 16.66,0 32.92,-13.46 32.92,-35.86l0 -0.26c0,-22.67 -16.39,-35.73 -32.92,-35.73 -12.8,0 -20.66,7.2 -26.39,15.33l0 -13.86 -10.27 0 0 90.24zm34.8 -29.06c-12.8,0 -24.93,-10.66 -24.93,-26.66l0 -0.26c0,-15.6 12.13,-26.53 24.93,-26.53 13.19,0 24.25,10.27 24.25,26.66l0 0.27c0,16.66 -10.92,26.52 -24.25,26.52zm53.72 29.06l10.26 0 0 -34.53c5.34,7.87 13.6,14.67 26.39,14.67 16.66,0 32.93,-13.46 32.93,-35.86l0 -0.26c0,-22.67 -16.4,-35.73 -32.93,-35.73 -12.79,0 -20.66,7.2 -26.39,15.33l0 -13.86 -10.26 0 0 90.24zm34.79 -29.06c-12.79,0 -24.92,-10.66 -24.92,-26.66l0 -0.26c0,-15.6 12.13,-26.53 24.92,-26.53 13.2,0 24.26,10.27 24.26,26.66l0 0.27c0,16.66 -10.94,26.52 -24.26,26.52zm54.65 7.73l10.27 0 0 -97.31 -10.27 0 0 97.31zm34.39 -83.98l11.73 0 0 -11.33 -11.73 0 0 11.33zm0.67 83.98l10.27 0 0 -68.91 -10.27 0 0 68.91zm64.25 1.6c13.19,0 21.46,-5.06 28.39,-12.93l-6.4 -5.73c-5.73,5.86 -12.13,9.73 -21.73,9.73 -12.27,0 -22.79,-8.4 -24.26,-23.33l54.65 0c0.14,-1.2 0.14,-1.87 0.14,-3.33 0,-20.13 -11.73,-36.39 -32.13,-36.39 -19.2,0 -33.06,16 -33.06,35.85l0 0.27c0,21.32 15.6,35.85 34.39,35.85zm-24 -39.86c1.47,-13.33 10.27,-23.46 22.4,-23.46 13.86,0 20.93,11.06 22,23.46l-44.39 0zm72.78 38.26l10.27 0 0 -27.46c0,-20.79 12.26,-31.59 27.33,-31.59l0.8 0 0 -11.07c-13.06,-0.39 -23.06,7.73 -28.13,19.2l0 -17.99 -10.27 0 0 68.91zm76.78 1.33c13.73,0 24.53,-7.6 24.53,-20.66l0 -0.27c0,-12.39 -11.47,-16.53 -22.13,-19.72 -9.19,-2.8 -17.73,-5.34 -17.73,-11.86l0 -0.27c0,-5.73 5.2,-10 13.33,-10 6.8,0 14,2.53 20.4,6.66l4.66 -7.73c-7.06,-4.67 -16.26,-7.6 -24.79,-7.6 -13.59,0 -23.46,7.87 -23.46,19.73l0 0.26c0,12.8 12.13,16.26 22.79,19.46 9.07,2.53 17.2,5.34 17.2,12.13l0 0.27c0,6.8 -5.86,10.93 -14.26,10.93 -8.13,0 -16.39,-3.06 -23.86,-8.8l-5.2 7.33c7.87,6.26 18.53,10.13 28.53,10.13zm115.03 0.26c20.79,0 36.12,-16.4 36.12,-35.99l0 -0.26c0,-19.47 -15.06,-35.73 -35.85,-35.73 -20.93,0 -35.99,16.4 -35.99,35.99l0 0.26c0,19.46 15.06,35.73 35.72,35.73zm0.27 -9.19c-14.53,0 -25.46,-12 -25.46,-26.8l0 -0.26c0,-14.53 10.27,-26.66 25.19,-26.66 14.53,0 25.59,12.13 25.59,26.92l0 0.26c0,14.4 -10.4,26.53 -25.32,26.53zm58.25 7.6l10.26 0 0 -59.85 21.73 0 0 -8.8 -21.86 0 0 -5.6c0,-9.73 3.99,-14.66 11.99,-14.66 3.6,0 6.26,0.66 10,1.73l0 -8.93c-3.34,-1.2 -6.54,-1.73 -11.34,-1.73 -6.26,0 -11.2,1.73 -14.79,5.33 -4,4 -6,9.87 -6,17.73l0 6 -9.47 0 0 8.93 9.47 0 0 59.85zm86.77 0l68.11 0 0 -9.6 -57.58 0 0 -32.66 50.91 0 0 -9.6 -50.91 0 0 -31.86 56.91 0 0 -9.6 -67.44 0 0 93.31zm87.57 0l10.27 0 0 -39.46c0,-12.93 8.8,-21.59 20.66,-21.59 12.26,0 19.06,8 19.06,20.79l0 40.25 10.26 0 0 -42.79c0,-16.4 -9.86,-27.6 -26.39,-27.6 -11.86,0 -18.93,6 -23.6,13.46l0 -12 -10.27 0 0 68.91zm112.64 21.6c11.06,0 19.99,-2.94 26.25,-9.2 5.73,-5.73 8.8,-13.73 8.8,-24.39l0 -56.92 -10.26 0 0 12.39c-5.73,-7.46 -13.99,-13.86 -26.93,-13.86 -16.53,0 -32.39,12.39 -32.39,32.53l0 0.26c0,19.73 15.86,32.26 32.39,32.26 12.67,0 21.06,-6.53 27.06,-14.53l0 8.13c0,16.13 -9.73,24.53 -25.06,24.53 -9.99,0 -18.53,-3.07 -26.52,-8.8l-4.67 8c9.2,6.4 19.73,9.6 31.33,9.6zm-0.14 -35.99c-12.8,0 -23.86,-9.6 -23.86,-23.46l0 -0.26c0,-14.13 10.67,-23.19 23.86,-23.19 13.07,0 25.33,9.19 25.33,23.32l0 0.26c0,13.87 -12.26,23.33 -25.33,23.33zm58.38 -69.58l11.73 0 0 -11.33 -11.73 0 0 11.33zm0.67 83.98l10.27 0 0 -68.91 -10.27 0 0 68.91zm34.12 0l10.27 0 0 -39.46c0,-12.93 8.79,-21.59 20.66,-21.59 12.26,0 19.06,8 19.06,20.79l0 40.25 10.26 0 0 -42.79c0,-16.4 -9.87,-27.6 -26.4,-27.6 -11.86,0 -18.93,6 -23.59,13.46l0 -12 -10.27 0 0 68.91zm112.24 1.6c13.19,0 21.45,-5.06 28.39,-12.93l-6.39 -5.73c-5.73,5.86 -12.13,9.73 -21.73,9.73 -12.26,0 -22.79,-8.4 -24.26,-23.33l54.65 0c0.14,-1.2 0.14,-1.87 0.14,-3.33 0,-20.13 -11.73,-36.39 -32.13,-36.39 -19.2,0 -33.06,16 -33.06,35.85l0 0.27c0,21.32 15.6,35.85 34.39,35.85zm-24 -39.86c1.47,-13.33 10.27,-23.46 22.4,-23.46 13.86,0 20.93,11.06 21.99,23.46l-44.39 0zm102.9 39.86c13.2,0 21.46,-5.06 28.39,-12.93l-6.4 -5.73c-5.73,5.86 -12.13,9.73 -21.72,9.73 -12.27,0 -22.8,-8.4 -24.26,-23.33l54.65 0c0.13,-1.2 0.13,-1.87 0.13,-3.33 0,-20.13 -11.73,-36.39 -32.12,-36.39 -19.2,0 -33.06,16 -33.06,35.85l0 0.27c0,21.32 15.59,35.85 34.39,35.85zm-23.99 -39.86c1.47,-13.33 10.27,-23.46 22.39,-23.46 13.86,0 20.93,11.06 21.99,23.46l-44.39 0zm72.78 38.26l10.27 0 0 -27.46c0,-20.79 12.26,-31.59 27.33,-31.59l0.79 0 0 -11.07c-13.06,-0.39 -23.05,7.73 -28.12,19.2l0 -17.99 -10.27 0 0 68.91zm54.25 -83.98l11.73 0 0 -11.33 -11.73 0 0 11.33zm0.67 83.98l10.27 0 0 -68.91 -10.27 0 0 68.91zm34.13 0l10.27 0 0 -39.46c0,-12.93 8.8,-21.59 20.65,-21.59 12.27,0 19.07,8 19.07,20.79l0 40.25 10.26 0 0 -42.79c0,-16.4 -9.87,-27.6 -26.4,-27.6 -11.86,0 -18.92,6 -23.59,13.46l0 -12 -10.27 0 0 68.91zm112.63 21.6c11.07,0 19.99,-2.94 26.27,-9.2 5.73,-5.73 8.79,-13.73 8.79,-24.39l0 -56.92 -10.27 0 0 12.39c-5.73,-7.46 -13.99,-13.86 -26.92,-13.86 -16.53,0 -32.39,12.39 -32.39,32.53l0 0.26c0,19.73 15.86,32.26 32.39,32.26 12.66,0 21.07,-6.53 27.06,-14.53l0 8.13c0,16.13 -9.73,24.53 -25.06,24.53 -10,0 -18.53,-3.07 -26.53,-8.8l-4.66 8c9.2,6.4 19.73,9.6 31.32,9.6zm-0.13 -35.99c-12.8,0 -23.86,-9.6 -23.86,-23.46l0 -0.26c0,-14.13 10.66,-23.19 23.86,-23.19 13.07,0 25.33,9.19 25.33,23.32l0 0.26c0,13.87 -12.26,23.33 -25.33,23.33zm131.83 15.73c18.53,0 31.86,-10.4 31.86,-26.4l0 -0.26c0,-14.27 -9.6,-21.73 -30.39,-26.4 -20.66,-4.26 -25.33,-9.33 -25.33,-18.12l0 -0.27c0,-8.53 7.6,-15.06 19.86,-15.06 9.59,0 18.26,3.06 26.92,10.13l6.13 -8.13c-9.6,-7.6 -19.06,-11.47 -32.79,-11.47 -17.73,0 -30.66,10.93 -30.66,25.46l0 0.27c0,15.32 9.87,22.26 31.33,26.92 19.59,4.26 24.26,9.06 24.26,17.73l0 0.26c0,9.2 -8.13,15.87 -20.79,15.87 -12.93,0 -22.26,-4.26 -31.99,-13.2l-6.54 7.73c11.2,10.13 23.2,14.93 38.13,14.93zm51.59 19.99l10.26 0 0 -34.53c5.34,7.87 13.6,14.67 26.39,14.67 16.67,0 32.93,-13.46 32.93,-35.86l0 -0.26c0,-22.67 -16.4,-35.73 -32.93,-35.73 -12.79,0 -20.66,7.2 -26.39,15.33l0 -13.86 -10.26 0 0 90.24zm34.79 -29.06c-12.79,0 -24.92,-10.66 -24.92,-26.66l0 -0.26c0,-15.6 12.13,-26.53 24.92,-26.53 13.2,0 24.26,10.27 24.26,26.66l0 0.27c0,16.66 -10.93,26.52 -24.26,26.52zm74.25 9.2c12.26,0 20.13,-5.6 24.92,-11.86l0 10.4 9.87 0 0 -42.12c0,-8.66 -2.4,-15.46 -7.07,-20.13 -5.06,-5.06 -12.52,-7.6 -22.26,-7.6 -10.13,0 -17.47,2.13 -25.06,5.73l3.07 8.39c6.4,-3.06 12.79,-5.06 20.93,-5.06 12.93,0 20.52,6.4 20.52,18.8l0 2.4c-6.26,-1.73 -12.26,-2.93 -21.19,-2.93 -17.46,0 -29.46,7.87 -29.46,22.26l0 0.27c0,14.26 12.93,21.46 25.72,21.46zm2 -8.13c-9.2,0 -17.33,-5.07 -17.33,-13.73l0 -0.26c0,-8.67 7.2,-14.26 20.13,-14.26 8.53,0 15.06,1.46 20.26,2.93l0 6.66c0,10.93 -10.27,18.66 -23.06,18.66zm54.65 6.66l10.27 0 0 -27.46c0,-20.79 12.26,-31.59 27.32,-31.59l0.8 0 0 -11.07c-13.06,-0.39 -23.06,7.73 -28.13,19.2l0 -17.99 -10.27 0 0 68.91z"/>
  <path class="fil1" d="M2230.07 1074.63c13.2,0 21.47,-5.06 28.4,-12.93l-6.4 -5.73c-5.73,5.86 -12.13,9.73 -21.73,9.73 -12.26,0 -22.79,-8.4 -24.26,-23.33l54.66 0c0.13,-1.2 0.13,-1.87 0.13,-3.33 0,-20.13 -11.73,-36.39 -32.12,-36.39 -19.19,0 -33.06,16 -33.06,35.85l0 0.27c0,21.32 15.59,35.85 34.39,35.85zm-23.99 -39.86c1.47,-13.33 10.27,-23.46 22.39,-23.46 13.86,0 20.93,11.06 22,23.46l-44.39 0zm95.58 39.6c13.73,0 24.53,-7.6 24.53,-20.66l0 -0.27c0,-12.39 -11.46,-16.53 -22.13,-19.72 -9.2,-2.8 -17.73,-5.34 -17.73,-11.86l0 -0.27c0,-5.73 5.2,-10 13.33,-10 6.8,0 14,2.53 20.4,6.66l4.66 -7.73c-7.07,-4.67 -16.26,-7.6 -24.79,-7.6 -13.59,0 -23.46,7.87 -23.46,19.73l0 0.26c0,12.8 12.13,16.26 22.79,19.46 9.07,2.53 17.2,5.34 17.2,12.13l0 0.27c0,6.8 -5.86,10.93 -14.27,10.93 -8.12,0 -16.39,-3.06 -23.86,-8.8l-5.19 7.33c7.86,6.26 18.52,10.13 28.52,10.13zm104.1 0.13c12.27,0 20.13,-5.6 24.93,-11.86l0 10.4 9.86 0 0 -42.12c0,-8.66 -2.4,-15.46 -7.07,-20.13 -5.06,-5.06 -12.53,-7.6 -22.26,-7.6 -10.13,0 -17.46,2.13 -25.06,5.73l3.06 8.39c6.4,-3.06 12.8,-5.06 20.93,-5.06 12.94,0 20.53,6.4 20.53,18.8l0 2.4c-6.26,-1.73 -12.27,-2.93 -21.19,-2.93 -17.47,0 -29.46,7.87 -29.46,22.26l0 0.27c0,14.26 12.94,21.46 25.73,21.46zm2 -8.13c-9.2,0 -17.33,-5.07 -17.33,-13.73l0 -0.26c0,-8.67 7.2,-14.26 20.12,-14.26 8.53,0 15.06,1.46 20.26,2.93l0 6.66c0,10.93 -10.26,18.66 -23.05,18.66zm54.65 6.66l10.27 0 0 -39.46c0,-12.93 8.8,-21.59 20.66,-21.59 12.26,0 19.06,8 19.06,20.79l0 40.25 10.26 0 0 -42.79c0,-16.4 -9.87,-27.6 -26.4,-27.6 -11.86,0 -18.93,6 -23.59,13.46l0 -12 -10.27 0 0 68.91zm111.04 1.47c12.79,0 20.66,-7.07 26.39,-15.33l0 13.87 10.27 0 0 -97.31 -10.27 0 0 41.59c-5.33,-7.86 -13.59,-14.66 -26.39,-14.66 -16.53,0 -32.93,13.46 -32.93,35.85l0 0.27c0,22.66 16.4,35.72 32.93,35.72zm1.87 -9.2c-13.2,0 -24.27,-10.27 -24.27,-26.66l0 -0.26c0,-16.67 10.94,-26.53 24.27,-26.53 12.8,0 24.92,10.67 24.92,26.53l0 0.26c0,15.86 -12.13,26.66 -24.92,26.66zm142.1 9.33c16.79,0 27.72,-6.53 37.32,-16.4l-6.93 -6.79c-8.93,8.53 -17.33,13.46 -30.12,13.46 -20.66,0 -36.12,-16.93 -36.12,-38.52l0 -0.26c0,-21.47 15.46,-38.26 36.12,-38.26 12.8,0 21.33,5.33 29.33,12.8l7.2 -7.73c-9.19,-8.93 -19.46,-14.8 -36.39,-14.8 -27.33,0 -47.18,21.87 -47.18,48.26l0 0.26c0,26.79 19.85,47.99 46.79,47.99zm85.97 0c20.8,0 36.13,-16.4 36.13,-35.99l0 -0.26c0,-19.47 -15.06,-35.73 -35.86,-35.73 -20.93,0 -35.99,16.4 -35.99,35.99l0 0.26c0,19.46 15.06,35.73 35.72,35.73zm0.26 -9.19c-14.53,0 -25.46,-12 -25.46,-26.8l0 -0.26c0,-14.53 10.27,-26.66 25.19,-26.66 14.53,0 25.6,12.13 25.6,26.92l0 0.26c0,14.4 -10.4,26.53 -25.33,26.53zm54.39 7.6l10.27 0 0 -39.46c0,-12.93 8.8,-21.59 20.66,-21.59 12.26,0 19.06,8 19.06,20.79l0 40.25 10.27 0 0 -42.79c0,-16.4 -9.86,-27.6 -26.39,-27.6 -11.87,0 -18.93,6 -23.6,13.46l0 -12 -10.27 0 0 68.91zm104.91 1.33c13.73,0 24.53,-7.6 24.53,-20.66l0 -0.27c0,-12.39 -11.47,-16.53 -22.13,-19.72 -9.19,-2.8 -17.73,-5.34 -17.73,-11.86l0 -0.27c0,-5.73 5.2,-10 13.33,-10 6.79,0 13.99,2.53 20.39,6.66l4.67 -7.73c-7.07,-4.67 -16.26,-7.6 -24.8,-7.6 -13.6,0 -23.46,7.87 -23.46,19.73l0 0.26c0,12.8 12.13,16.26 22.8,19.46 9.06,2.53 17.19,5.34 17.19,12.13l0 0.27c0,6.8 -5.87,10.93 -14.26,10.93 -8.14,0 -16.4,-3.06 -23.86,-8.8l-5.2 7.33c7.86,6.26 18.53,10.13 28.52,10.13zm68.91 0.13c11.86,0 18.93,-6 23.6,-13.46l0 12 10.13 0 0 -68.91 -10.13 0 0 39.46c0,12.93 -8.93,21.59 -20.66,21.59 -12.26,0 -19.06,-8 -19.06,-20.79l0 -40.25 -10.27 0 0 42.79c0,16.4 9.86,27.59 26.39,27.59zm56.79 -1.47l10.26 0 0 -39.32c0,-12.67 8.27,-21.73 19.2,-21.73 11.06,0 17.73,7.6 17.73,20.53l0 40.52 10.13 0 0 -39.72c0,-13.59 8.8,-21.33 19.06,-21.33 11.2,0 17.86,7.46 17.86,20.79l0 40.25 10.27 0 0 -42.66c0,-17.2 -9.6,-27.73 -25.6,-27.73 -12.13,0 -19.19,6.13 -24.25,13.73 -3.74,-7.86 -10.94,-13.73 -22.13,-13.73 -11.59,0 -17.59,6.13 -22.26,13.06l0 -11.59 -10.26 0 0 68.91zm146.89 1.47c12.27,0 20.13,-5.6 24.93,-11.86l0 10.4 9.86 0 0 -42.12c0,-8.66 -2.4,-15.46 -7.07,-20.13 -5.06,-5.06 -12.52,-7.6 -22.26,-7.6 -10.13,0 -17.46,2.13 -25.06,5.73l3.06 8.39c6.4,-3.06 12.8,-5.06 20.93,-5.06 12.93,0 20.53,6.4 20.53,18.8l0 2.4c-6.26,-1.73 -12.26,-2.93 -21.19,-2.93 -17.46,0 -29.46,7.87 -29.46,22.26l0 0.27c0,14.26 12.93,21.46 25.72,21.46zm2 -8.13c-9.19,0 -17.32,-5.07 -17.32,-13.73l0 -0.26c0,-8.67 7.2,-14.26 20.12,-14.26 8.54,0 15.06,1.46 20.27,2.93l0 6.66c0,10.93 -10.27,18.66 -23.07,18.66zm91.32 8.13c16.66,0 32.92,-13.46 32.92,-35.86l0 -0.26c0,-22.67 -16.39,-35.73 -32.92,-35.73 -12.8,0 -20.66,7.2 -26.4,15.33l0 -42.25 -10.27 0 0 97.31 10.27 0 0 -13.2c5.33,7.87 13.59,14.67 26.4,14.67zm-1.87 -9.2c-12.8,0 -24.93,-10.66 -24.93,-26.66l0 -0.26c0,-15.6 12.13,-26.53 24.93,-26.53 13.19,0 24.26,10.27 24.26,26.66l0 0.27c0,16.66 -10.93,26.52 -24.26,26.52zm54.65 7.73l10.26 0 0 -97.31 -10.26 0 0 97.31zm64.25 1.6c13.19,0 21.45,-5.06 28.39,-12.93l-6.4 -5.73c-5.73,5.86 -12.13,9.73 -21.72,9.73 -12.27,0 -22.79,-8.4 -24.26,-23.33l54.65 0c0.14,-1.2 0.14,-1.87 0.14,-3.33 0,-20.13 -11.73,-36.39 -32.13,-36.39 -19.2,0 -33.06,16 -33.06,35.85l0 0.27c0,21.32 15.6,35.85 34.39,35.85zm-24 -39.86c1.47,-13.33 10.27,-23.46 22.4,-23.46 13.86,0 20.93,11.06 21.99,23.46l-44.39 0zm95.57 39.6c13.73,0 24.53,-7.6 24.53,-20.66l0 -0.27c0,-12.39 -11.47,-16.53 -22.13,-19.72 -9.19,-2.8 -17.73,-5.34 -17.73,-11.86l0 -0.27c0,-5.73 5.19,-10 13.33,-10 6.8,0 14,2.53 20.39,6.66l4.67 -7.73c-7.07,-4.67 -16.26,-7.6 -24.79,-7.6 -13.59,0 -23.46,7.87 -23.46,19.73l0 0.26c0,12.8 12.13,16.26 22.79,19.46 9.06,2.53 17.2,5.34 17.2,12.13l0 0.27c0,6.8 -5.87,10.93 -14.26,10.93 -8.14,0 -16.4,-3.06 -23.86,-8.8l-5.2 7.33c7.86,6.26 18.53,10.13 28.52,10.13zm42.25 -1.33l12.27 0 0 -14 -12.27 0 0 14z"/>
 </g>
</svg>
